<mxfile host="app.diagrams.net" modified="2023-02-13T15:25:47.836Z" agent="5.0 (Windows NT 10.0; Win64; x64) AppleWebKit/537.36 (KHTML, like Gecko) Chrome/86.0.4240.198 Safari/537.36" etag="JxRl7QDeCOftBZCzBYNS" version="20.8.20" type="github">
  <diagram name="PÃ¡gina-1" id="PnJhK3dFuCKKqyW6J7VR">
    <mxGraphModel dx="794" dy="732" grid="1" gridSize="10" guides="1" tooltips="1" connect="1" arrows="1" fold="1" page="1" pageScale="1" pageWidth="827" pageHeight="1169" math="0" shadow="0">
      <root>
        <mxCell id="0" />
        <mxCell id="1" parent="0" />
        <mxCell id="sSqJwWlfDwwJTCcgeyPi-1" value="&lt;font style=&quot;vertical-align: inherit;&quot;&gt;&lt;font style=&quot;vertical-align: inherit;&quot;&gt;Cliente&lt;/font&gt;&lt;/font&gt;" style="rounded=0;whiteSpace=wrap;html=1;" vertex="1" parent="1">
          <mxGeometry x="180" y="150" width="120" height="60" as="geometry" />
        </mxCell>
        <mxCell id="sSqJwWlfDwwJTCcgeyPi-2" value="&lt;font style=&quot;vertical-align: inherit;&quot;&gt;&lt;font style=&quot;vertical-align: inherit;&quot;&gt;Venda&lt;/font&gt;&lt;/font&gt;" style="rounded=0;whiteSpace=wrap;html=1;" vertex="1" parent="1">
          <mxGeometry x="580" y="130" width="120" height="60" as="geometry" />
        </mxCell>
        <mxCell id="sSqJwWlfDwwJTCcgeyPi-3" value="&lt;font style=&quot;vertical-align: inherit;&quot;&gt;&lt;font style=&quot;vertical-align: inherit;&quot;&gt;Produto&lt;/font&gt;&lt;/font&gt;" style="rounded=0;whiteSpace=wrap;html=1;" vertex="1" parent="1">
          <mxGeometry x="170" y="310" width="120" height="60" as="geometry" />
        </mxCell>
        <mxCell id="sSqJwWlfDwwJTCcgeyPi-5" value="&lt;font style=&quot;vertical-align: inherit;&quot;&gt;&lt;font style=&quot;vertical-align: inherit;&quot;&gt;Vendedor&lt;/font&gt;&lt;/font&gt;" style="rounded=0;whiteSpace=wrap;html=1;" vertex="1" parent="1">
          <mxGeometry x="520" y="310" width="120" height="60" as="geometry" />
        </mxCell>
        <mxCell id="sSqJwWlfDwwJTCcgeyPi-8" style="edgeStyle=orthogonalEdgeStyle;rounded=0;orthogonalLoop=1;jettySize=auto;html=1;endArrow=none;endFill=0;" edge="1" parent="1" source="sSqJwWlfDwwJTCcgeyPi-6" target="sSqJwWlfDwwJTCcgeyPi-1">
          <mxGeometry relative="1" as="geometry" />
        </mxCell>
        <mxCell id="sSqJwWlfDwwJTCcgeyPi-6" value="&lt;font style=&quot;vertical-align: inherit;&quot;&gt;&lt;font style=&quot;vertical-align: inherit;&quot;&gt;CPF&lt;/font&gt;&lt;/font&gt;" style="ellipse;whiteSpace=wrap;html=1;" vertex="1" parent="1">
          <mxGeometry x="220" y="30" width="40" height="30" as="geometry" />
        </mxCell>
        <mxCell id="sSqJwWlfDwwJTCcgeyPi-10" style="edgeStyle=orthogonalEdgeStyle;rounded=0;orthogonalLoop=1;jettySize=auto;html=1;entryX=0.9;entryY=0.017;entryDx=0;entryDy=0;entryPerimeter=0;endArrow=none;endFill=0;" edge="1" parent="1" source="sSqJwWlfDwwJTCcgeyPi-9" target="sSqJwWlfDwwJTCcgeyPi-1">
          <mxGeometry relative="1" as="geometry" />
        </mxCell>
        <mxCell id="sSqJwWlfDwwJTCcgeyPi-9" value="NOME" style="ellipse;whiteSpace=wrap;html=1;" vertex="1" parent="1">
          <mxGeometry x="270" y="40" width="40" height="30" as="geometry" />
        </mxCell>
        <mxCell id="sSqJwWlfDwwJTCcgeyPi-12" style="edgeStyle=orthogonalEdgeStyle;rounded=0;orthogonalLoop=1;jettySize=auto;html=1;entryX=1;entryY=0.5;entryDx=0;entryDy=0;endArrow=none;endFill=0;" edge="1" parent="1" source="sSqJwWlfDwwJTCcgeyPi-11" target="sSqJwWlfDwwJTCcgeyPi-1">
          <mxGeometry relative="1" as="geometry" />
        </mxCell>
        <mxCell id="sSqJwWlfDwwJTCcgeyPi-11" value="E-MAIL" style="ellipse;whiteSpace=wrap;html=1;" vertex="1" parent="1">
          <mxGeometry x="340" y="50" width="70" height="30" as="geometry" />
        </mxCell>
        <mxCell id="sSqJwWlfDwwJTCcgeyPi-14" style="edgeStyle=orthogonalEdgeStyle;rounded=0;orthogonalLoop=1;jettySize=auto;html=1;entryX=1;entryY=0.75;entryDx=0;entryDy=0;endArrow=none;endFill=0;" edge="1" parent="1" source="sSqJwWlfDwwJTCcgeyPi-13" target="sSqJwWlfDwwJTCcgeyPi-1">
          <mxGeometry relative="1" as="geometry" />
        </mxCell>
        <mxCell id="sSqJwWlfDwwJTCcgeyPi-13" value="GENERO" style="ellipse;whiteSpace=wrap;html=1;" vertex="1" parent="1">
          <mxGeometry x="370" y="90" width="70" height="30" as="geometry" />
        </mxCell>
        <mxCell id="sSqJwWlfDwwJTCcgeyPi-16" style="edgeStyle=orthogonalEdgeStyle;rounded=0;orthogonalLoop=1;jettySize=auto;html=1;entryX=1;entryY=0.5;entryDx=0;entryDy=0;endArrow=none;endFill=0;" edge="1" parent="1" source="sSqJwWlfDwwJTCcgeyPi-15" target="sSqJwWlfDwwJTCcgeyPi-1">
          <mxGeometry relative="1" as="geometry" />
        </mxCell>
        <mxCell id="sSqJwWlfDwwJTCcgeyPi-15" value="Salario" style="ellipse;whiteSpace=wrap;html=1;" vertex="1" parent="1">
          <mxGeometry x="390" y="130" width="70" height="30" as="geometry" />
        </mxCell>
        <mxCell id="sSqJwWlfDwwJTCcgeyPi-18" style="edgeStyle=orthogonalEdgeStyle;rounded=0;orthogonalLoop=1;jettySize=auto;html=1;entryX=0;entryY=0;entryDx=0;entryDy=0;endArrow=none;endFill=0;" edge="1" parent="1" source="sSqJwWlfDwwJTCcgeyPi-17" target="sSqJwWlfDwwJTCcgeyPi-1">
          <mxGeometry relative="1" as="geometry" />
        </mxCell>
        <mxCell id="sSqJwWlfDwwJTCcgeyPi-17" value="DIA/MES" style="ellipse;whiteSpace=wrap;html=1;" vertex="1" parent="1">
          <mxGeometry x="140" y="30" width="70" height="30" as="geometry" />
        </mxCell>
        <mxCell id="sSqJwWlfDwwJTCcgeyPi-22" style="edgeStyle=orthogonalEdgeStyle;rounded=0;orthogonalLoop=1;jettySize=auto;html=1;entryX=0;entryY=0.25;entryDx=0;entryDy=0;endArrow=none;endFill=0;" edge="1" parent="1" source="sSqJwWlfDwwJTCcgeyPi-19" target="sSqJwWlfDwwJTCcgeyPi-1">
          <mxGeometry relative="1" as="geometry" />
        </mxCell>
        <mxCell id="sSqJwWlfDwwJTCcgeyPi-19" value="BAIRRO" style="ellipse;whiteSpace=wrap;html=1;" vertex="1" parent="1">
          <mxGeometry x="70" y="60" width="70" height="30" as="geometry" />
        </mxCell>
        <mxCell id="sSqJwWlfDwwJTCcgeyPi-24" style="edgeStyle=orthogonalEdgeStyle;rounded=0;orthogonalLoop=1;jettySize=auto;html=1;entryX=0;entryY=0.5;entryDx=0;entryDy=0;endArrow=none;endFill=0;" edge="1" parent="1" source="sSqJwWlfDwwJTCcgeyPi-21" target="sSqJwWlfDwwJTCcgeyPi-1">
          <mxGeometry relative="1" as="geometry" />
        </mxCell>
        <mxCell id="sSqJwWlfDwwJTCcgeyPi-21" value="CIDADE" style="ellipse;whiteSpace=wrap;html=1;" vertex="1" parent="1">
          <mxGeometry x="40" y="110" width="70" height="30" as="geometry" />
        </mxCell>
        <mxCell id="sSqJwWlfDwwJTCcgeyPi-27" style="edgeStyle=orthogonalEdgeStyle;rounded=0;orthogonalLoop=1;jettySize=auto;html=1;endArrow=none;endFill=0;" edge="1" parent="1" source="sSqJwWlfDwwJTCcgeyPi-25" target="sSqJwWlfDwwJTCcgeyPi-1">
          <mxGeometry relative="1" as="geometry" />
        </mxCell>
        <mxCell id="sSqJwWlfDwwJTCcgeyPi-25" value="UF" style="ellipse;whiteSpace=wrap;html=1;" vertex="1" parent="1">
          <mxGeometry x="40" y="165" width="70" height="30" as="geometry" />
        </mxCell>
        <mxCell id="sSqJwWlfDwwJTCcgeyPi-35" style="edgeStyle=orthogonalEdgeStyle;rounded=0;orthogonalLoop=1;jettySize=auto;html=1;entryX=0;entryY=0.5;entryDx=0;entryDy=0;endArrow=none;endFill=0;" edge="1" parent="1" source="sSqJwWlfDwwJTCcgeyPi-28" target="sSqJwWlfDwwJTCcgeyPi-2">
          <mxGeometry relative="1" as="geometry" />
        </mxCell>
        <mxCell id="sSqJwWlfDwwJTCcgeyPi-28" value="REGISTRO" style="ellipse;whiteSpace=wrap;html=1;" vertex="1" parent="1">
          <mxGeometry x="480" y="145" width="70" height="30" as="geometry" />
        </mxCell>
        <mxCell id="sSqJwWlfDwwJTCcgeyPi-34" style="edgeStyle=orthogonalEdgeStyle;rounded=0;orthogonalLoop=1;jettySize=auto;html=1;entryX=0.25;entryY=0;entryDx=0;entryDy=0;endArrow=none;endFill=0;" edge="1" parent="1" source="sSqJwWlfDwwJTCcgeyPi-29" target="sSqJwWlfDwwJTCcgeyPi-2">
          <mxGeometry relative="1" as="geometry" />
        </mxCell>
        <mxCell id="sSqJwWlfDwwJTCcgeyPi-29" value="COD bARRAS" style="ellipse;whiteSpace=wrap;html=1;" vertex="1" parent="1">
          <mxGeometry x="560" y="50" width="100" height="30" as="geometry" />
        </mxCell>
        <mxCell id="sSqJwWlfDwwJTCcgeyPi-33" style="edgeStyle=orthogonalEdgeStyle;rounded=0;orthogonalLoop=1;jettySize=auto;html=1;endArrow=none;endFill=0;" edge="1" parent="1" source="sSqJwWlfDwwJTCcgeyPi-30" target="sSqJwWlfDwwJTCcgeyPi-2">
          <mxGeometry relative="1" as="geometry" />
        </mxCell>
        <mxCell id="sSqJwWlfDwwJTCcgeyPi-30" value="DATA/HORA" style="ellipse;whiteSpace=wrap;html=1;" vertex="1" parent="1">
          <mxGeometry x="683" y="50" width="70" height="30" as="geometry" />
        </mxCell>
        <mxCell id="sSqJwWlfDwwJTCcgeyPi-32" style="edgeStyle=orthogonalEdgeStyle;rounded=0;orthogonalLoop=1;jettySize=auto;html=1;entryX=0.917;entryY=0.5;entryDx=0;entryDy=0;entryPerimeter=0;endArrow=none;endFill=0;" edge="1" parent="1" source="sSqJwWlfDwwJTCcgeyPi-31" target="sSqJwWlfDwwJTCcgeyPi-2">
          <mxGeometry relative="1" as="geometry" />
        </mxCell>
        <mxCell id="sSqJwWlfDwwJTCcgeyPi-31" value="VALOR" style="ellipse;whiteSpace=wrap;html=1;" vertex="1" parent="1">
          <mxGeometry x="757" y="100" width="70" height="30" as="geometry" />
        </mxCell>
      </root>
    </mxGraphModel>
  </diagram>
</mxfile>
